<?xml version="1.0" encoding="iso-8859-1"?>
<!-- Generator: Adobe Illustrator 18.1.1, SVG Export Plug-In . SVG Version: 6.00 Build 0)  -->
<svg version="1.1" id="Capa_1" xmlns="http://www.w3.org/2000/svg" xmlns:xlink="http://www.w3.org/1999/xlink" x="0px" y="0px"
	 viewBox="0 0 298.703 298.703" style="enable-background:new 0 0 298.703 298.703;" xml:space="preserve">
<g>
	<g>
		<path style="fill:#010002;" d="M296.029,56.512L236.2,2.121c-0.049-0.049-0.114-0.054-0.163-0.098
			c-0.761-0.658-1.605-1.159-2.497-1.49c-0.109-0.038-0.223-0.065-0.332-0.103c-0.74-0.239-1.512-0.37-2.279-0.392
			C230.853,0.033,230.788,0,230.711,0H8.161H0.003v8.159v222.55c0,0.087,0.038,0.158,0.044,0.245
			c0.027,0.783,0.158,1.561,0.408,2.312c0.038,0.109,0.06,0.223,0.103,0.332c0.337,0.897,0.854,1.74,1.523,2.497
			c0.044,0.049,0.054,0.109,0.092,0.158l55.299,59.83c0.691,0.745,1.507,1.305,2.366,1.735v0.887h3.628H298.7V59.83h-0.582
			C297.683,58.606,297.057,57.447,296.029,56.512z M76.15,76.147h206.233V282.38H76.15V76.147z M71.374,59.83L57.205,45.666h202.632
			l15.583,14.163H71.374z M227.557,16.317l9.6,8.724H36.586l-8.724-8.724H227.557z M16.32,227.516V27.853L28.59,40.124v5.542v79.818
			l18.743,15.023v-81.64l12.499,12.499v203.225L16.32,227.516z"/>
		<path style="fill:#010002;" d="M187.563,112.349c-5.461-5.461-14.31-5.461-19.766,0l-42.833,42.827
			c-5.461,5.461-3.628,9.883,4.096,9.883h20.663v41.935c0,7.718,6.26,13.978,13.978,13.978h27.957
			c7.718,0,13.978-6.26,13.978-13.978v-41.935H226.3c7.718,0,9.551-4.427,4.096-9.883L187.563,112.349z"/>
		<path style="fill:#010002;" d="M222.553,235.691h-94.275c-6.005,0-10.878,4.873-10.878,10.878c0,6.005,4.873,10.878,10.878,10.878
			h94.275c6.005,0,10.878-4.873,10.878-10.878C233.431,240.564,228.558,235.691,222.553,235.691z"/>
	</g>
</g>
<g>
</g>
<g>
</g>
<g>
</g>
<g>
</g>
<g>
</g>
<g>
</g>
<g>
</g>
<g>
</g>
<g>
</g>
<g>
</g>
<g>
</g>
<g>
</g>
<g>
</g>
<g>
</g>
<g>
</g>
</svg>
